# xmcd
#
# Track frame offsets: 
#        150
#        28102
#        33880
#        55100
#        79060
#        98032
#        119955
#        141560
#        160085
#        180210
#        185567
#        204602
#        227030
#        244475
#
# Disc length: 3525 seconds
#
# Revision: 3
# Processed by: cddbd v1.5.2PL0 Copyright (c) Steve Scherf et al.
# Submitted via: ExactAudioCopy v1.0b1
#
DISCID=c20dc30e
DTITLE=Joe Kwan Woo - special 99 edition
DYEAR=1998
DGENRE=R&B
TTITLE0=늪
TTITLE1=Prologue
TTITLE2=다시 네게로 돌아와
TTITLE3=님은 먼곳에
TTITLE4=꽃밭에서
TTITLE5=Because I Love you girl
TTITLE6=모래성
TTITLE7=하늘, 바다, 나무, 별의 이야기
TTITLE8=Too much heaven
TTITLE9=Interlude
TTITLE10=빗물
TTITLE11=겨울 이야기
TTITLE12=찻집의 고독
TTITLE13=늪 (Instrumental)
EXTD=YEAR: 1998
EXTT0=
EXTT1=
EXTT2=
EXTT3=
EXTT4=
EXTT5=
EXTT6=
EXTT7=
EXTT8=
EXTT9=
EXTT10=
EXTT11=
EXTT12=
EXTT13=
PLAYORDER=
